<svg xmlns="http://www.w3.org/2000/svg" width="7.871" height="8.996" viewBox="0 0 7.871 8.996">
  <path id="React_Icons-1" data-name="React Icons-1" d="M5.612,5.618,3.936,7.294,2.259,5.618A2.356,2.356,0,0,0,0,7.969,1.023,1.023,0,0,0,1.023,8.992H6.849A1.023,1.023,0,0,0,7.871,7.969,2.356,2.356,0,0,0,5.612,5.618ZM3.936,5.337A2.249,2.249,0,0,0,6.185,3.088V1.152A.562.562,0,0,0,5.82.625L4.33.067a1.124,1.124,0,0,0-.79,0L2.051.626a.562.562,0,0,0-.365.526V3.088A2.249,2.249,0,0,0,3.936,5.337Zm-.7-4.082a.088.088,0,0,1,.088-.088H3.7V.786A.088.088,0,0,1,3.789.7h.293A.088.088,0,0,1,4.17.786v.381h.381a.088.088,0,0,1,.088.088v.293a.088.088,0,0,1-.088.088H4.17v.381a.088.088,0,0,1-.088.088H3.789A.088.088,0,0,1,3.7,2.016V1.636H3.321a.088.088,0,0,1-.088-.088Zm-.7,1.552H5.341v.281a1.406,1.406,0,0,1-2.811,0Z" transform="translate(0 0.004)" fill="#CC2DA7"/>
</svg>
